 <svg version="1.0" xmlns="http://www.w3.org/2000/svg" width="700.000000pt" height="700.000000pt" viewBox="0 0 700.000000 700.000000" preserveAspectRatio="xMidYMid meet">
<metadata>
Created by potrace 1.12, written by Peter Selinger 2001-2015
</metadata>
<g transform="translate(0.000000,700.000000) scale(0.100000,-0.100000)" fill="#000000" stroke="none">
<path d="M3480 5819 c-13 -6 -47 -25 -75 -43 -263 -174 -328 -213 -392 -238
-65 -24 -88 -28 -182 -28 -59 0 -131 6 -161 14 -167 42 -281 23 -364 -60 -25
-24 -52 -59 -61 -77 -22 -42 -75 -170 -75 -180 0 -16 -54 -123 -79 -157 -35
-47 -95 -105 -145 -139 -41 -29 -75 -44 -219 -100 -152 -60 -225 -131 -253
-250 -15 -63 -16 -82 -5 -139 51 -278 33 -408 -79 -567 -199 -282 -234 -349
-216 -419 3 -13 47 -75 97 -137 158 -194 204 -282 222 -422 9 -70 8 -106 -3
-185 -8 -53 -15 -137 -15 -187 0 -78 4 -97 28 -147 44 -90 153 -171 257 -193
74 -15 199 -86 263 -149 69 -67 129 -169 147 -251 43 -191 185 -316 358 -315
37 1 85 8 107 16 23 9 88 18 150 21 101 5 116 3 188 -22 96 -33 180 -80 275
-153 105 -82 155 -112 215 -128 103 -28 195 11 332 138 73 69 112 96 195 135
47 22 72 27 171 31 98 3 128 1 194 -18 136 -38 269 -9 367 79 46 41 108 143
108 177 0 7 12 38 27 70 79 173 200 287 378 354 193 73 246 111 291 210 21 46
25 70 26 145 0 50 -7 121 -16 158 -22 94 -20 201 5 293 28 101 63 160 163 276
113 131 145 251 104 388 -15 46 -38 79 -126 174 -84 90 -115 146 -143 254 -23
91 -24 168 -3 258 8 37 16 113 16 168 1 88 -2 108 -24 156 -42 90 -143 169
-258 200 -73 20 -184 77 -244 125 -69 57 -136 150 -169 235 -14 36 -37 97 -52
136 -36 94 -92 159 -169 195 -76 36 -147 38 -273 8 -72 -17 -107 -20 -193 -16
-106 6 -167 22 -255 69 -43 23 -168 121 -188 147 -18 24 -83 70 -122 87 -39
16 -89 17 -125 3z m-52 -922 c2 -11 -3 -17 -17 -17 -25 0 -38 19 -20 31 19 12
33 6 37 -14z m867 -143 c9 -4 21 -18 26 -32 11 -27 -13 -81 -71 -164 -122
-173 -162 -238 -239 -395 -17 -34 -35 -64 -41 -68 -6 -3 -17 -21 -25 -38 -8
-18 -25 -49 -38 -69 -12 -21 -44 -75 -71 -122 -27 -47 -63 -102 -80 -123 -29
-35 -45 -68 -67 -138 -11 -38 -74 -108 -91 -103 -7 2 -23 24 -35 48 -25 49
-23 73 12 135 12 22 26 51 30 65 4 14 19 41 34 60 15 19 46 69 70 110 23 41
52 91 64 111 12 20 50 86 85 147 35 60 69 116 77 122 8 7 15 18 15 24 0 6 15
34 34 62 18 28 38 66 44 83 6 18 20 44 30 59 30 44 41 78 31 93 -15 24 -10 31
15 25 20 -5 30 2 62 42 58 73 80 84 129 66z m-452 -225 c8 -12 5 -26 -12 -53
-35 -57 -58 -46 -52 24 5 48 41 65 64 29z m-241 -126 c6 -31 -9 -157 -22 -185
-23 -49 -67 -44 -90 11 -10 24 -9 40 5 88 23 80 39 103 74 103 20 0 31 -6 33
-17z m-601 -43 c36 -40 123 -185 148 -247 7 -18 29 -48 48 -68 23 -23 36 -47
38 -69 1 -19 27 -76 57 -128 30 -51 67 -120 82 -153 15 -33 38 -71 52 -85 40
-41 72 -97 76 -132 2 -26 8 -34 26 -36 13 -2 32 4 42 13 16 15 18 14 23 -12 3
-16 31 -61 63 -101 l57 -72 22 20 c22 21 60 27 69 11 3 -5 -3 -28 -13 -52 -17
-38 -18 -46 -5 -70 20 -40 53 -60 76 -48 34 18 55 -20 21 -40 -18 -10 -10 -25
59 -115 13 -17 58 -77 100 -135 42 -58 86 -118 97 -133 12 -14 21 -31 21 -36
0 -12 68 -142 81 -156 5 -6 9 -16 9 -24 0 -8 7 -28 15 -45 15 -34 40 -103 56
-153 14 -46 -3 -82 -48 -101 -56 -23 -136 -3 -183 46 -33 34 -86 131 -104 189
-4 13 -26 56 -48 95 -36 64 -59 97 -101 147 -45 53 -160 200 -202 256 -59 80
-195 224 -212 224 -23 0 -145 -182 -161 -242 -6 -20 -24 -56 -40 -80 -56 -80
-171 -280 -177 -310 -4 -16 -20 -38 -36 -50 -16 -12 -29 -26 -29 -30 0 -5 -20
-38 -45 -74 -25 -35 -45 -70 -45 -77 0 -22 -59 -97 -85 -109 -22 -10 -29 -8
-50 12 -30 28 -31 49 -5 118 11 29 20 61 20 72 0 10 12 26 28 35 16 10 44 47
66 88 22 40 54 96 73 125 46 73 52 106 22 123 -29 14 -39 28 -39 52 0 21 33
23 50 2 7 -8 24 -15 39 -15 22 0 33 10 60 58 19 31 49 81 68 109 18 29 33 59
33 67 0 7 7 19 16 27 15 13 15 24 -1 91 -5 20 -1 35 20 62 30 39 46 44 65 21
19 -22 30 -15 46 30 13 38 12 42 -13 79 -21 32 -23 43 -14 58 20 31 13 41 -23
34 -32 -6 -35 -4 -61 40 -15 25 -42 55 -61 66 -38 22 -54 46 -54 77 0 11 -15
45 -34 74 -60 93 -238 453 -271 547 -28 79 -15 108 70 153 66 34 99 29 146
-23z m371 -257 c18 -17 44 -29 70 -32 35 -5 44 -11 53 -35 9 -25 6 -31 -23
-57 -38 -34 -97 -39 -132 -11 -35 28 -41 162 -8 162 7 0 25 -12 40 -27z m246
1 c2 -11 -6 -31 -17 -45 l-19 -24 -12 26 c-9 20 -9 32 0 48 14 27 44 24 48 -5z
m534 -9 c0 -5 -5 -11 -11 -13 -6 -2 -11 4 -11 13 0 9 5 15 11 13 6 -2 11 -8
11 -13z m-1852 -195 c0 -5 -2 -10 -4 -10 -3 0 -8 5 -11 10 -3 6 -1 10 4 10 6
0 11 -4 11 -10z m1175 -10 c7 -11 -11 -40 -24 -40 -17 0 -43 28 -37 38 9 15
53 16 61 2z m600 -30 c0 -28 -4 -35 -20 -35 -13 0 -21 8 -23 23 -5 34 5 54 25
50 13 -2 18 -13 18 -38z m-1655 -10 c11 -20 4 -66 -13 -87 -17 -23 -57 -15
-67 13 -11 28 -8 37 23 72 25 27 43 28 57 2z m-145 -180 c3 -5 1 -10 -4 -10
-6 0 -11 5 -11 10 0 6 2 10 4 10 3 0 8 -4 11 -10z m733 -42 c-6 -18 -28 -21
-28 -4 0 9 7 16 16 16 9 0 14 -5 12 -12z m1100 -104 c-5 -26 -25 -28 -33 -3
-5 14 -2 25 6 30 18 10 32 -4 27 -27z m162 -150 c0 -8 -5 -12 -10 -9 -6 4 -8
11 -5 16 9 14 15 11 15 -7z m-1315 -464 c3 -5 -1 -10 -10 -10 -9 0 -13 5 -10
10 3 6 8 10 10 10 2 0 7 -4 10 -10z m473 -267 c-4 -22 -22 -20 -26 1 -2 10 3
16 13 16 10 0 15 -7 13 -17z m430 -120 c5 -17 -26 -29 -40 -15 -6 6 -7 15 -3
22 9 14 37 9 43 -7z m-684 -94 c-7 -13 -31 -11 -40 2 -9 16 18 30 33 17 7 -6
10 -14 7 -19z m87 -113 c15 -32 6 -63 -30 -106 -29 -35 -29 -35 -50 -16 -27
24 -27 71 -1 114 25 40 65 44 81 8z m574 -46 c0 -16 -28 -25 -50 -16 -9 3 -12
12 -9 21 8 21 59 16 59 -5z m-367 -2 c-6 -18 -28 -21 -28 -4 0 9 7 16 16 16 9
0 14 -5 12 -12z m162 -98 c0 -5 -2 -10 -4 -10 -3 0 -8 5 -11 10 -3 6 -1 10 4
10 6 0 11 -4 11 -10z m140 -46 c0 -31 -3 -35 -22 -32 -39 5 -37 68 2 68 16 0
20 -6 20 -36z"></path>
<path d="M3062 3929 c1 -13 8 -23 13 -21 15 3 12 35 -3 40 -9 3 -13 -3 -10
-19z"></path>
<path d="M3660 3161 c0 -12 5 -21 10 -21 6 0 10 6 10 14 0 8 -4 18 -10 21 -5
3 -10 -3 -10 -14z"></path>
<path d="M3697 3099 c3 -11 14 -26 24 -32 11 -7 19 -18 19 -25 0 -8 14 -27 30
-44 17 -16 30 -25 30 -18 0 9 -35 66 -50 80 -3 3 -13 17 -23 33 -21 32 -37 36
-30 6z"></path>
<path d="M3920 2796 c0 -9 5 -16 10 -16 6 0 10 4 10 9 0 6 -4 13 -10 16 -5 3
-10 -1 -10 -9z"></path>
</g>
</svg>